<svg id="Layer_1" data-name="Layer 1" xmlns="http://www.w3.org/2000/svg" viewBox="0 0 1088.25 275.28"><defs><style>.cls-1{fill:#fff;}</style></defs><path class="cls-1" d="M-29.58-425.19a10.86,10.86,0,0,1,3.15.43c.95.28,1.42.62,1.42,1h-2.57a7.64,7.64,0,0,0,2.86.57h5.15L-21-422l.57.57-2.29-.28-2.29.28V-420l4.58-.28,1.71.28v1.72c0,.19.19.33.58.43a4.34,4.34,0,0,0,1.14.14h-3.72v1.14a.79.79,0,0,0,.57.29h.58l2,.57-1.15.29a2.2,2.2,0,0,1-.85-.29,9.5,9.5,0,0,0-2.29-.28,1.94,1.94,0,0,0-1.43.57v.28a5.36,5.36,0,0,1,1.43.57,13.28,13.28,0,0,0,1.29.58,10.7,10.7,0,0,0,1.28.43c.38.09.57.24.57.42h-2.86a23.84,23.84,0,0,0,3.72,2,2.37,2.37,0,0,1,1.29.29,1,1,0,0,1,.43.86h.28v.28h-.57l-1.14,1.15h-.29a12,12,0,0,1,2.43,1.28c.67.48,1,.82,1,1,0,.39-.57.58-1.71.58H-43.59v50.16q0,35-.28,65.89,0,20.88-.57,31.16v8.86a4.63,4.63,0,0,1-1.43-.28,3.09,3.09,0,0,0-1.72-.57h-.57a1.11,1.11,0,0,0-1.14.85L-50.45-246q-1.71,4-3.71,4.72a11.78,11.78,0,0,1-4,.71c-.38,0-.62-.33-.71-1a14.42,14.42,0,0,1-.14-2.14v-1.43c0-.38-.1-.57-.29-.57l-.57.57c0-1.72,0-3.57-.14-5.58s-.24-3.76-.43-5.28-.48-2.38-.86-2.58c-.38,0-.76.67-1.14,2a12.91,12.91,0,0,0-.86,5.44,30.31,30.31,0,0,1-.29,4.28,6.29,6.29,0,0,1-1.14,4,3.06,3.06,0,0,1-1.71.57,4.61,4.61,0,0,1-2-.57,3.53,3.53,0,0,0-2-.58H-71l-1.14.58v9.14l-1.15.57a3.47,3.47,0,0,1-2-.57,1.64,1.64,0,0,0-1.14-.57v-.28h-.29c-.19,0-.28,0-.28.14v.71a52.34,52.34,0,0,0-1.14,11.44l.28,13.43a2.54,2.54,0,0,0-1.14.29,2.59,2.59,0,0,1-1.15.28,1.13,1.13,0,0,1-.85-.28,2.8,2.8,0,0,1-.57-1.15.79.79,0,0,1-.29-.57,1.13,1.13,0,0,0-.29-.85q0-6.87-.28-13.73V-286a83,83,0,0,0-4.29-7.43q-9.72-16.29-24.3-25.16a27.87,27.87,0,0,0-7.14-3.43,10.59,10.59,0,0,1-1.43-.57,4.65,4.65,0,0,0-2-.57.79.79,0,0,1-.57-.29,11.18,11.18,0,0,0-2.57-.28,28.33,28.33,0,0,0-4-.29,33.51,33.51,0,0,0-9.44,1.43,31.2,31.2,0,0,0-12,6.86,21.59,21.59,0,0,0-6.29,9.44,13.71,13.71,0,0,0-.86,4.85,16.69,16.69,0,0,0,1.15,5.72q2.28,6,5.43,8a8.56,8.56,0,0,0,4.57,1.71h.86a3.53,3.53,0,0,0,2-.57,6.29,6.29,0,0,0,2.29-2.57v-.29q1.42-2.28,1.43-7.15c0-1.9.38-2.76,1.14-2.57l.86.29a5.88,5.88,0,0,1,1.71,2.28,19.41,19.41,0,0,1,1.72,2.86l.28.57v-.28a1.12,1.12,0,0,1,.15-.72l.42-.42a2,2,0,0,1,.58-.43c.18-.1.28-.33.28-.72l-.28-.57a4.75,4.75,0,0,1,2.14.71,8.44,8.44,0,0,1,2.43,2.15,9.79,9.79,0,0,1,1.72,6l-.58,3.43a6.37,6.37,0,0,1,.86-2,8.2,8.2,0,0,0,.86-3.72c.38-.57.76-.85,1.14-.85a3.09,3.09,0,0,1,1.72.57,7.22,7.22,0,0,0,1.71.86l-.57,4a1.13,1.13,0,0,0,.29.86l3.43,1.14a8.54,8.54,0,0,1,.57-1.72.8.8,0,0,0,.28-.57v-1.14a4,4,0,0,0,.29-1.72,10.77,10.77,0,0,0,.57-3.43v2.58c0,.76.1,1.14.29,1.14l3.71.57v.57a16.07,16.07,0,0,1-2.28,8,15.15,15.15,0,0,1-.57,1.43l-3.15,4.86a30.15,30.15,0,0,1-1.71,2.57,10.8,10.8,0,0,0-1.43,1.71l2,2a17.5,17.5,0,0,0,4-4.29l2.86-5.43a46.77,46.77,0,0,0,2.86-10.87,4.6,4.6,0,0,0,1.14,3,4.92,4.92,0,0,0,2,1,38.57,38.57,0,0,1-2.57,7.43,66.85,66.85,0,0,1-4,6.86,40.3,40.3,0,0,1-3.72,4.29,21.47,21.47,0,0,0-2,2.28l-6,6.29a4.27,4.27,0,0,0,1.14-.86,37.44,37.44,0,0,0,7.72-6.86,1.19,1.19,0,0,1,.28.86q0,1.44-2.28,4l-4.29,4a15.07,15.07,0,0,1-3.72,2.28,15.85,15.85,0,0,0-2.28,1.43,39.38,39.38,0,0,1-5.72,2c-.57.19-1.24.39-2,.57a19.6,19.6,0,0,1-5.72.86,8.44,8.44,0,0,1-2,.29h-2.29l-5.14-.29a26.57,26.57,0,0,1-6.29-1.14l-6.29-2c-.76-.38-1.62-.76-2.57-1.15-1.53-.76-3-1.61-4.58-2.57a41.29,41.29,0,0,1-7.14-5.43l-1.43-1.43a41.2,41.2,0,0,1-5.43-6l-2.86-4.29a19.57,19.57,0,0,1-1.43-2.86,20.57,20.57,0,0,0-1.15-2,30.48,30.48,0,0,1-2.28-5.15l-1.72-5.43a56.74,56.74,0,0,1-1.71-8.57,16.16,16.16,0,0,0-.29-3.15l.29-6.29a36.84,36.84,0,0,1,.57-6.57,62,62,0,0,1,10.58-24A58.44,58.44,0,0,1-171.36-348a3,3,0,0,1-.58-.86,53.8,53.8,0,0,1-4-6,80.92,80.92,0,0,1-9.15-24.3,65.73,65.73,0,0,1-1.14-12.29,60.69,60.69,0,0,1,1.72-14.29h-18.87c-1.14-.19-2.14-.38-3-.58s-1.29-.47-1.29-.85h2.57a7.62,7.62,0,0,0-2.85-.57h-5.15l1.14-.86v-.29l-.28-.57,2.28.29,2.29-.29v-1.43l-4.86.29-1.43-.29v-1.71a.51.51,0,0,0-.57-.58h2.29v-1.14c0-.19,0-.29-.15-.29h-.71l-2-.57,1.14-.28h.29a5.35,5.35,0,0,0,1.28.43,8.6,8.6,0,0,0,1.58.14,1.94,1.94,0,0,0,1.43-.57v-.29h-.29c-.57-.19-1.19-.43-1.86-.71s-1.23-.53-1.71-.72-.72-.38-.72-.57h2.58a25.69,25.69,0,0,0-3.72-2,2.41,2.41,0,0,1-1.14-.29.91.91,0,0,1-.58-.85v-.29h.58l1.14-1.14h.29a11.25,11.25,0,0,1-2.43-1.29c-.67-.47-1-.81-1-1,0-.38.58-.57,1.72-.57Zm-52.88,19.44h-61.18l-1.14,2a27.76,27.76,0,0,0-2.29,7.72,30.37,30.37,0,0,0-.28,4.28,34.63,34.63,0,0,0,.28,4.29,34.92,34.92,0,0,0,6.86,16.3,30.71,30.71,0,0,0,8.58,8.57,78.71,78.71,0,0,1,9.72.57,29.08,29.08,0,0,1,8,1.15,12.24,12.24,0,0,0,3.43,1.14l3.15.86A95.66,95.66,0,0,1-96.47-354,117.77,117.77,0,0,1-83-345.72l.57.57ZM-87-303.7l-.28.28.28.58c1,1.9,2,3.9,3.15,6,.38.76.86,1.62,1.43,2.57V-324a33.31,33.31,0,0,0-7.72-6.29,5.5,5.5,0,0,0-2.57-1.14.25.25,0,0,0-.29.29l1.14,1.71a16.81,16.81,0,0,0,3.72,4.29c1.14,1.14,2.29,2.38,3.43,3.71A6,6,0,0,1-83-317.71a2.48,2.48,0,0,1-1.15,1.86,9.52,9.52,0,0,1-2,.71,12.69,12.69,0,0,0-1.43.58v.28h-.28a1.94,1.94,0,0,0-.43.57,1.92,1.92,0,0,0-.15.86L-83-306a1.33,1.33,0,0,1-.86,1.43c-.57.19-1.24.38-2,.57h-.86v.29Z" transform="translate(218.25 454.35)"/><path class="cls-1" d="M-8.14-209.37c-.38,0-.67-.33-.86-1s-.38-1.29-.57-1.86q-.29-6.86-.29-173.8a47.86,47.86,0,0,0-6-8.86q-6.85-7.42-19.15-10.58l-.57-.28q11.15-6.58,11.15-4.86c0,.19-.29.43-.86.71a1.7,1.7,0,0,0-1,1,.84.84,0,0,0,.14.86,27,27,0,0,1,7.72,4.29l.28.57a1.15,1.15,0,0,1-1.14.57c-.57,0-.86.19-.86.57l.29.29a55.18,55.18,0,0,1,10,11.43v-59.46c0-3,.29-4.57.86-4.57q1.73.28,5.15,8.86v-.86a2.22,2.22,0,0,1,.43-1.57,3.68,3.68,0,0,0,.71-1L-3-450.06q2,0,4.72,3.29t3.57,9.86v-6.58a1.12,1.12,0,0,1,1.15-.85,3.42,3.42,0,0,1,1.43.42,3.73,3.73,0,0,0,1.71.43c0,3.05.38,4.58,1.15,4.58h3.43v-8.86c0,2.85.38,4.28,1.14,4.28h3.43a22.83,22.83,0,0,1,.29,3.72l-.58,8a22.65,22.65,0,0,0,.29,3.72h2.86l.28-5.15-.28-10.29A3.32,3.32,0,0,0,25-441.2l.28,4-.28,12h1.14V-428c.76,0,1.43,1,2,2.86h2q15.72,0,15.73,1.43H43.31a6,6,0,0,0,3.15.86l3.14-.58,1.72.29v.29a1,1,0,0,0-.86.42,1.44,1.44,0,0,0-.29.72l.29.28H45.89V-420h6.29v1.72q0,.57,1.71.57H50.17v1.43a1.41,1.41,0,0,1,.58.14,4.16,4.16,0,0,0,1,.29,7.64,7.64,0,0,0,1.57.14l-1.14.57c-.2,0-.29-.09-.29-.28L49.6-416a2.23,2.23,0,0,0-2,.85,3,3,0,0,0,1.29.57l1.43.43a14.81,14.81,0,0,1,1.86,1H49.32a13.46,13.46,0,0,0,3.43,1.72,5.6,5.6,0,0,1,1.57.57,1.8,1.8,0,0,1,.57.57,1.36,1.36,0,0,1,.14.57,1.66,1.66,0,0,0-1.14.58c-.38.38-.67.57-.86.57,2.29,1.14,3.43,1.9,3.43,2.28s-9.14.58-27.44.58v50q-.57,84-.86,96.34v8.86a4.8,4.8,0,0,1-1.85-.43,4.7,4.7,0,0,0-1.86-.43c-.39,0-.77.43-1.15,1.29s-.76,1.67-1.14,2.43v.85c-1.71,3.63-4.39,5.43-8,5.43-.58,0-.86-1-.86-3.14v-2c-.19,0-.48.19-.86.57q0-13.42-1.43-13.43c-.19,0-.48.67-.86,2q-.86,1.14-.85,6c0,5.53-1,8.29-2.86,8.29l-4.86-1.14a1.94,1.94,0,0,0-1.43.57v8.86a1.15,1.15,0,0,1-1.14.57,5.54,5.54,0,0,1-2.86-1.14q-2,0-2,13.15l.28,12.29Z" transform="translate(218.25 454.35)"/><path class="cls-1" d="M231.41-425.19a10.79,10.79,0,0,1,3.14.43c.95.28,1.43.62,1.43,1h-2.57a7.64,7.64,0,0,0,2.86.57h5.14L240-422l.57.57-2.28-.28-2.29.28V-420l4.57-.28,1.72.28v1.72c0,.19.19.33.57.43a4.45,4.45,0,0,0,1.14.14h-3.71v1.14a.77.77,0,0,0,.57.29h.57l2,.57-1.14.29a2.23,2.23,0,0,1-.86-.29,9.44,9.44,0,0,0-2.29-.28,1.94,1.94,0,0,0-1.43.57v.28a5.36,5.36,0,0,1,1.43.57,13.28,13.28,0,0,0,1.29.58,10.24,10.24,0,0,0,1.29.43c.38.09.57.24.57.42h-2.86a23,23,0,0,0,3.72,2,2.31,2.31,0,0,1,1.28.29,1,1,0,0,1,.43.86h.29v.28h-.58l-1.14,1.15h-.28a12,12,0,0,1,2.43,1.28c.66.48,1,.82,1,1,0,.39-.58.58-1.72.58H216a113.06,113.06,0,0,1,.86,14l-.58,117.21q0,20-.28,30.3v8.57a4.63,4.63,0,0,1-1.43-.28,3.09,3.09,0,0,0-1.72-.58h-.57a1.12,1.12,0,0,0-1.14.86,6.43,6.43,0,0,1-1.14,2.86v.57c-1.15,2.67-2.39,4.25-3.72,4.72a12.58,12.58,0,0,1-4.29.71c-.38,0-.57-.33-.57-1v-3.28l-.29-.29v-.29l-.57.29c0-1.52-.05-3.29-.14-5.29a23.38,23.38,0,0,0-.71-5c0-1.52-.2-2.38-.58-2.57h-.28v.28h-.29a9.23,9.23,0,0,0-.57,1.72,5.48,5.48,0,0,0-.71,2.57q-.15,1.71-.15,3.72a19.2,19.2,0,0,0-.28,3.14,6.17,6.17,0,0,1-1.43,3.72,2.78,2.78,0,0,1-1.43.57,3.51,3.51,0,0,1-2-.57c-.77-.19-1.43-.38-2-.58h-.86l-.86.86v8.58l-1.14.57a3.51,3.51,0,0,1-2-.57,1.64,1.64,0,0,0-1.15-.57h-.71c-.1,0-.14.18-.14.57a35,35,0,0,0-.86,8l-.29,1.15a2.81,2.81,0,0,1-.57,2,1.64,1.64,0,0,1-1.14.57,1.76,1.76,0,0,1-1.43-.72,4.67,4.67,0,0,1-.86-1.85v-27.16a115.84,115.84,0,0,0-38.59-31.16,127.73,127.73,0,0,0-51.46-12A102.12,102.12,0,0,1,75-282.55a59.15,59.15,0,0,0-12.58-1.14l-6.57.28c-1.34,0-2-.28-2-.85s.57-1.34,1.71-2.29a38.88,38.88,0,0,1,4-2.86l-.57.29a.83.83,0,0,1-.57-.29.81.81,0,0,1-.28-.57.83.83,0,0,1-.58-.29.86.86,0,0,0-.57-.28l-.57.28v-.28c0-1.33.72-2.91,2.14-4.72a10.68,10.68,0,0,1,6.72-3.57l-4.57.28a1.68,1.68,0,0,1-.86-1.43,4.51,4.51,0,0,1,.29-1.43,5.67,5.67,0,0,0,.28-1.71,7.5,7.5,0,0,0,2.15-.29c.66-.18,1-.47,1-.85L63.32-308l-6.29.57a1.17,1.17,0,0,0,.86-.28,7.68,7.68,0,0,0,1.57-.15c.48-.09.72-.33.72-.71l-.29-3.72a12.11,12.11,0,0,1,2.86-.28h6a7,7,0,0,1-.85-1.72,1.19,1.19,0,0,0-.29-.86l-.29-.57-.28.29A6.85,6.85,0,0,0,63-314c-1.72,0-2.58-.38-2.58-1.15-.19.2-.33.29-.43.29H59.6l.86-.86.57-1.43v-1.43a5.78,5.78,0,0,1,1.72-.28l.29-.57.57-.29L112.77-356A153.66,153.66,0,0,0,79-382.31a213.7,213.7,0,0,0-23.72-12.58c-1-.57-1.43-1.05-1.43-1.43,0-.57.52-1.14,1.57-1.72a16.37,16.37,0,0,1,3.86-1.42.46.46,0,0,1-.43-.29,1.2,1.2,0,0,1-.14-.57v-.57a.26.26,0,0,0-.29-.29h-.28A7,7,0,0,1,60.75-404a10.12,10.12,0,0,1,3.14-1.71H43.6c-1.15-.19-2.15-.38-3-.58s-1.29-.47-1.29-.85h2.57a7.64,7.64,0,0,0-2.86-.57H33.88l1.14-.86v-.29l-.28-.57,2.28.29,2.29-.29v-1.43l-4.86.29L33-410.9v-1.71a.51.51,0,0,0-.57-.58h2.29v-1.14c0-.19-.05-.29-.15-.29h-.71l-2-.57,1.14-.28h.29a5.35,5.35,0,0,0,1.28.43,8.49,8.49,0,0,0,1.57.14,1.93,1.93,0,0,0,1.43-.57v-.29h-.28c-.57-.19-1.19-.43-1.86-.71s-1.24-.53-1.72-.72-.71-.38-.71-.57h2.57a25.17,25.17,0,0,0-3.71-2,2.48,2.48,0,0,1-1.15-.29.9.9,0,0,1-.57-.85v-.29h.57l1.15-1.14h.28a11.5,11.5,0,0,1-2.43-1.29c-.66-.47-1-.81-1-1,0-.38.57-.57,1.72-.57ZM115.06-205.94a39.9,39.9,0,0,1-7.72-.86q-10.29-2.28-18.29-12.86a31.16,31.16,0,0,1-5.15-17.15,25.87,25.87,0,0,1,1.15-7.72Q89.33-258,99.91-263.4h.29q7.71-3.42,13.72-3.43h1.71a17.49,17.49,0,0,1,7.72,1.43,22.75,22.75,0,0,1,6.29,2.58l-2,2.28-.57,1.15a1.13,1.13,0,0,0,.28.85.87.87,0,0,1,.29.57,1.68,1.68,0,0,1,.57,1.15l.29.57.57,2.29a4.19,4.19,0,0,1-.86,2.57l-1.71,2.29-.58.57-.57.28a1.2,1.2,0,0,1-.57-.14.46.46,0,0,1-.29-.43l-.85-.28-.29.85a4.85,4.85,0,0,0-1.71-1,6,6,0,0,0-2-.43h-.58a.83.83,0,0,0-.57.29v.57a2.23,2.23,0,0,0,.29.86,3.11,3.11,0,0,0,.57.86,3.19,3.19,0,0,0,.86.57l.85.86.29.57-.29,1.14-3.71,4v.29l-1.15,1.43h.29v.28a4.33,4.33,0,0,1-.71.58,9.89,9.89,0,0,1-1,.57v.28h1.14l2.57.58a18.74,18.74,0,0,1,2,1.14c.57.38.86.76.86,1.14l.29-1.14a5.17,5.17,0,0,1,2.57.86l1.71.57v.57a1.21,1.21,0,0,0,.15.57.45.45,0,0,0,.43.29l3.43,1.43a2.67,2.67,0,0,0,.28-1.15,5.06,5.06,0,0,0,.57-2.28v.85a1.89,1.89,0,0,0,.15.86.45.45,0,0,0,.42.29l3.44.86v.28a4.09,4.09,0,0,1-.72,2.43,15.89,15.89,0,0,0-1.29,2.15,14.59,14.59,0,0,0-1.71,2.57l2.29,1.71a9.76,9.76,0,0,0,2.71-3.86,18.41,18.41,0,0,0,1.29-4.43,2.76,2.76,0,0,0,1.14,1.72,6.37,6.37,0,0,0,2,.86,10.9,10.9,0,0,1-3.14,6,12.8,12.8,0,0,0-3.72,6l3.15-3.43a1.16,1.16,0,0,1,.57,1.15q0,2-3.72,5.71a20.42,20.42,0,0,1-5.57,3.58,32.16,32.16,0,0,1-5.58,1.85A26.52,26.52,0,0,1,115.06-205.94ZM178-405.75h-64l3.14,2.28a201.72,201.72,0,0,1,27.16,24.59c0,.19,0,.28.14.28s.14.1.14.29a.9.9,0,0,1,.58.28c2.28,2.68,4.28,5.15,6,7.44a13.31,13.31,0,0,1,2,2.57l5.43,7.43-2.86,1.15,1.43,2.28,3.15-2-.57.57a.81.81,0,0,0-.29.57v.29l2.29,3.15a7.82,7.82,0,0,1-3.43,2.28A7.66,7.66,0,0,0,154.8-350l1.71,2.29a15.82,15.82,0,0,0,4-2.58c1-.76,1.81-1.43,2.58-2l-.29.86a2.41,2.41,0,0,0,.29,1.14,4.1,4.1,0,0,0,.85,1.15l.29.28a8.76,8.76,0,0,1-3.72,2.58,11.17,11.17,0,0,0-2.57,1.42,5.17,5.17,0,0,0-1.72,2.58l2.86-1.72.29.86q0,1.71-2.72,3.86c-1.81,1.43-3.57,2.71-5.28,3.86l-12,8a3.11,3.11,0,0,1-.86.57,7.5,7.5,0,0,1-2.57,1.72L122.49-316a163.35,163.35,0,0,1,24.3,7.71l6.58,2.58q3.13,1.71,6,3.14a6.86,6.86,0,0,0,1.71.86,22.16,22.16,0,0,0,4,2.29l5.14,3.43h.29l6.57,4.57.86.86Zm36,0h-.86l.86,2.57Z" transform="translate(218.25 454.35)"/><path class="cls-1" d="M252-209.37c-.39,0-.67-.33-.86-1s-.38-1.29-.57-1.86q-.28-6.86-.29-173.8a47.86,47.86,0,0,0-6-8.86q-6.87-7.42-19.15-10.58l-.58-.28q11.16-6.58,11.15-4.86c0,.19-.28.43-.85.71a1.72,1.72,0,0,0-1,1,.87.87,0,0,0,.15.86,27.11,27.11,0,0,1,7.72,4.29l.28.57a1.15,1.15,0,0,1-1.14.57c-.57,0-.86.19-.86.57l.29.29a55.18,55.18,0,0,1,10,11.43v-59.46c0-3,.29-4.57.86-4.57q1.71.28,5.14,8.86v-.86a2.27,2.27,0,0,1,.43-1.57,3.51,3.51,0,0,0,.72-1l-.29-1.14c1.33,0,2.91,1.1,4.72,3.29s3,5.48,3.57,9.86v-6.58a1.12,1.12,0,0,1,1.15-.85,3.39,3.39,0,0,1,1.42.42,3.8,3.8,0,0,0,1.72.43c0,3.05.38,4.58,1.14,4.58h3.43v-8.86c0,2.85.38,4.28,1.15,4.28h3.43a24,24,0,0,1,.28,3.72l-.57,8a22.65,22.65,0,0,0,.29,3.72h2.86l.28-5.15-.28-10.29a3.32,3.32,0,0,0,3.43,2.29l.28,4-.28,12h1.14V-428c.76,0,1.43,1,2,2.86h2q15.72,0,15.72,1.43h-2.57a6,6,0,0,0,3.15.86l3.14-.58,1.72.29v.29a1,1,0,0,0-.86.42,1.44,1.44,0,0,0-.29.72l.29.28H306V-420h6.29v1.72c0,.38.57.57,1.72.57H310.3v1.43a1.33,1.33,0,0,1,.57.14,4.48,4.48,0,0,0,1,.29,7.74,7.74,0,0,0,1.58.14l-1.15.57a.24.24,0,0,1-.28-.28l-2.29-.57a2.21,2.21,0,0,0-2,.85,3,3,0,0,0,1.29.57l1.42.43a13.48,13.48,0,0,1,1.86,1h-2.86a13.79,13.79,0,0,0,3.43,1.72,5.7,5.7,0,0,1,1.58.57,1.8,1.8,0,0,1,.57.57,1.36,1.36,0,0,1,.14.57,1.66,1.66,0,0,0-1.14.58c-.39.38-.67.57-.86.57,2.29,1.14,3.43,1.9,3.43,2.28s-9.15.58-27.44.58v50q-.58,84-.86,96.34v8.86a4.88,4.88,0,0,1-1.86-.43,4.66,4.66,0,0,0-1.86-.43q-.57,0-1.14,1.29c-.38.85-.76,1.67-1.14,2.43v.85c-1.72,3.63-4.39,5.43-8,5.43-.57,0-.85-1-.85-3.14v-2c-.2,0-.48.19-.86.57q0-13.42-1.43-13.43c-.19,0-.48.67-.86,2q-.86,1.14-.86,6,0,8.29-2.85,8.29l-4.86-1.14a1.93,1.93,0,0,0-1.43.57v8.86a1.16,1.16,0,0,1-1.15.57,5.6,5.6,0,0,1-2.86-1.14q-2,0-2,13.15l.29,12.29Z" transform="translate(218.25 454.35)"/><path class="cls-1" d="M558.42-425.19a10.81,10.81,0,0,1,3.15.43c.95.28,1.43.62,1.43,1h-2.58a7.71,7.71,0,0,0,2.86.57h5.15L567-422l.57.57-2.29-.28-2.28.28V-420l4.57-.28,1.72.28v1.72c0,.19.18.33.57.43a4.45,4.45,0,0,0,1.14.14h-3.71v1.14a.76.76,0,0,0,.57.29h.57l2,.57-1.14.29a2.18,2.18,0,0,1-.86-.29,9.5,9.5,0,0,0-2.29-.28,1.94,1.94,0,0,0-1.43.57v.28a5.36,5.36,0,0,1,1.43.57,13.28,13.28,0,0,0,1.29.58,10.7,10.7,0,0,0,1.28.43c.38.09.58.24.58.42h-2.86a23.38,23.38,0,0,0,3.71,2,2.37,2.37,0,0,1,1.29.29,1,1,0,0,1,.43.86h.28v.28h-.57l-1.14,1.15h-.29a11.71,11.71,0,0,1,2.43,1.28c.67.48,1,.82,1,1,0,.39-.57.58-1.71.58H450.37l6,4c1.15.95,2.38,1.91,3.72,2.86q6.86,4.86,11.43,7.72a2.08,2.08,0,0,0,.57.42l.86.43,1.15.57a2.39,2.39,0,0,0,1.14.29,37.18,37.18,0,0,1,4.86,2.29c1.33.57,2.57,1.14,3.71,1.71,1,.39,1.81.77,2.58,1.15l4,2.28a55.71,55.71,0,0,0,6.86,3.43l6.29,2a30.28,30.28,0,0,0,6,1.72l1.15.28a26.75,26.75,0,0,0,4.43,1.15l3.85.57c1.53.19,3.62.48,6.29.86a18.9,18.9,0,0,1,4.58.57,8.89,8.89,0,0,1,3.14,1.14,2.23,2.23,0,0,1,.86.29q2,.86,4.29,1.71a15.26,15.26,0,0,0,3.14,1.43,41,41,0,0,1,5.15,4.86,34,34,0,0,1,3.71,7.44,27.87,27.87,0,0,1,1.43,8.86,28.32,28.32,0,0,1-.85,6.86q-1.73,8.3-8.29,17.15l-6.58,11.15a164.56,164.56,0,0,0-13.72,31.73v.28q-4,16-4,25.44l.28,6.58a63.29,63.29,0,0,0,1.72,7.72H517l-.28.28a1.44,1.44,0,0,0-.72.29,1,1,0,0,0-.43.86v5.14a8.54,8.54,0,0,1-1.28,5.15,8.57,8.57,0,0,1-3,2.57,1.19,1.19,0,0,1-1-.71c-.29-.48-.62-1-1-1.58a.85.85,0,0,0-.29-.57l-1.14-2c-.2,0-.29.19-.29.57a55.59,55.59,0,0,1-2.71-6.43,50.91,50.91,0,0,1-1.86-6.15l-1.43-2.85-.29-.29-.57,4.57a19,19,0,0,0,.86,5q.85,3,1.71,5.86a18.24,18.24,0,0,1,1.15,5.14,2.06,2.06,0,0,1-.86,1.43,3.22,3.22,0,0,1-1.43.29h-3.43c-.19.18-.39.38-.57.57a1.65,1.65,0,0,0-.29,1.14,35.72,35.72,0,0,0,3.72,6.29l3.71,5.15v.57a1.11,1.11,0,0,1-.85,1.14,5.49,5.49,0,0,1-1.72.29h-1.14l-.57.28.57.86q8.28,12.57,24.58,20.87l6,2.86v2a1.35,1.35,0,0,1-.28.71,1,1,0,0,1-.86.43l-1.43-.28-2.28-.86a88.73,88.73,0,0,1-18.87-11.44,78.25,78.25,0,0,1-22-28.87A105.22,105.22,0,0,1,481.24-238a104.36,104.36,0,0,1-1.43-17.15q1.72-33.72,15.44-60.6,3.13-6.85,6.86-13.43l3.72-6.86a12.3,12.3,0,0,0-2-.29,1.86,1.86,0,0,1-.85-.14,1.92,1.92,0,0,0-.86-.15,23.28,23.28,0,0,0-2.29-.85,72.38,72.38,0,0,1-7.43-2L485-342a48.51,48.51,0,0,1-8.29-3.71c-2.29-1.15-4.29-2.19-6-3.15a44,44,0,0,0-5.44-2.57c-2.48-1.14-4.28-1.9-5.43-2.29a11.11,11.11,0,0,1-2.28-.85c-.77-.38-1.63-.86-2.58-1.43a2.25,2.25,0,0,0-.85-.29,6.54,6.54,0,0,1-1.72-1.14l-2.29-1.43c-1.33-.76-2.62-1.58-3.86-2.43s-2.62-1.86-4.14-3a168.47,168.47,0,0,1-14.87-11.15l-2.85-2.29.28,5.43-1.43,28v5.71l9.15-2.57A120,120,0,0,1,444.08-344a53,53,0,0,1,7.43-.57,29.18,29.18,0,0,1,13.72,3.14,25.92,25.92,0,0,1,8,7.15l1.43,2.29a2.52,2.52,0,0,1,.28,1.14,3.19,3.19,0,0,0,.29,1.43l2.57,7.72-.28,3.43V-312a41.89,41.89,0,0,1-.58,6.86,34.53,34.53,0,0,0-.57,5.14c-.19,1.34-.43,2.58-.71,3.72a38.71,38.71,0,0,1-1.57,4.57,54.84,54.84,0,0,1-1.58,5.72,41.14,41.14,0,0,1-1.85,4.29,13.2,13.2,0,0,1-1.15,3.14,78.34,78.34,0,0,1-24,29.73,71.05,71.05,0,0,1-35.16,14,71.64,71.64,0,0,1-8.86.57l-8.29-.28-8-1.15a3.2,3.2,0,0,1-1.43-.28h-.85a2.25,2.25,0,0,1-.72-.15l-1.28-.43-4.29-1.14a7.64,7.64,0,0,1-5.15-1.71l-1.14-.58a21.17,21.17,0,0,1-5.15-2.28q-4.86-2.58-8.86-5.15a90.69,90.69,0,0,1-7.72-5.14L342.31-258q-11.71-10.56-17.15-17.43L319.73-282l-5.14-6.57a3,3,0,0,1,2.28-.29,3.17,3.17,0,0,0,1.43-.28c.58-.19.86-.48.86-.86l-.57-1.43a16.63,16.63,0,0,1-2-4.29,1.19,1.19,0,0,0-.29-.86l-.57-1.14a27.26,27.26,0,0,1-1.71-7.72v-1.71a2.78,2.78,0,0,1,1.14-1.72l1.71-1.14a.26.26,0,0,1,.29-.29c.19,0,.52.29,1,.86a11.11,11.11,0,0,1,1.29,2,9.92,9.92,0,0,1,1.14,1.43.85.85,0,0,1,.29.57A9.4,9.4,0,0,0,322-304l.57.57h.29l-.29-.85q2.58,3.72,5.86,7.86t5.86,7A11,11,0,0,0,336-288a8.18,8.18,0,0,0,1.71,1.43H338l.28-.29L336.6-290a53.38,53.38,0,0,0-4.29-6.58,85.7,85.7,0,0,1-5.15-7.43c-1.71-2.86-2.57-4.95-2.57-6.29q0-1.43.57-1.71a3.19,3.19,0,0,1,1.43-.29H330v-.28a1.54,1.54,0,0,0,.72-.58,3,3,0,0,0,.14-1.14l-7.43-12.86a1.75,1.75,0,0,1,.43-1.29,1.37,1.37,0,0,1,1-.43l2.86.57.57-.28-.57-.86Q326-334,324-339.43q-3.72-9.44-6.86-20.3l-1.43-6.58,1.14-.57a2.48,2.48,0,0,1,.58-.43,1.3,1.3,0,0,1,.57-.14c.57,0,1.14.57,1.71,1.72a4.8,4.8,0,0,0,.29,1.43.81.81,0,0,1,.28.57,128.48,128.48,0,0,0,6.29,19.44,164.18,164.18,0,0,0,36,53.17q11.72,11.43,23.16,16a4.22,4.22,0,0,0,1.71.58,2.17,2.17,0,0,0,.86.28h.28a5.19,5.19,0,0,0,1.15.43,5.75,5.75,0,0,0,1.43.14,5.39,5.39,0,0,1,1.71.29,22.5,22.5,0,0,0,4.86.57h3.43a15.42,15.42,0,0,0,3.15-.29h2a9.86,9.86,0,0,0,1.71-.14,11.65,11.65,0,0,0,2.29-.71,34.74,34.74,0,0,0,19.15-12.58,41.47,41.47,0,0,0,6-11.15,8.72,8.72,0,0,0,1.15-3.14.85.85,0,0,1,.28-.58v-.85q-5.71,1.71-10.43,3t-10.43,2.43a22.94,22.94,0,0,1-6,.86,19,19,0,0,1-9.14-2,28.13,28.13,0,0,1-6-3.71l-.57-.57a21.54,21.54,0,0,1-2-2.29,27.44,27.44,0,0,1-5.72-10.58,76.7,76.7,0,0,1-2-14l-.28-6q0-10,.28-16.58t.86-14.29c.19-2.09.38-4.29.57-6.57l3.43-33.16h-86c-1.15-.19-2.15-.38-3-.58s-1.29-.47-1.29-.85h2.57a7.64,7.64,0,0,0-2.86-.57h-5.14l1.14-.86v-.29l-.28-.57,2.28.29,2.29-.29v-1.43l-4.86.29-1.43-.29v-1.71a.51.51,0,0,0-.57-.58h2.29v-1.14c0-.19-.05-.29-.15-.29h-.71l-2-.57,1.14-.28h.29a5.35,5.35,0,0,0,1.28.43,8.52,8.52,0,0,0,1.58.14,1.94,1.94,0,0,0,1.43-.57v-.29h-.29c-.57-.19-1.19-.43-1.86-.71s-1.24-.53-1.71-.72-.72-.38-.72-.57h2.57a25.17,25.17,0,0,0-3.71-2,2.48,2.48,0,0,1-1.15-.29.91.91,0,0,1-.57-.85v-.29h.57l1.15-1.14H292a11.5,11.5,0,0,1-2.43-1.29c-.66-.47-1-.81-1-1,0-.38.58-.57,1.72-.57ZM404.63-405.75h-.86a1.91,1.91,0,0,0,.58,1.43Zm9.15,0h-.57l.28.28Zm4.57,24.29.29-1.14-2.86-2.57v3.71Zm2.29-19.43v-.58L418.35-404l-.28,1.43Zm1.43,31.15.86-9.43-1.15-.86-.28,4.29Zm4-36h-2.86c.76.76,1.33,1.14,1.72,1.14h.28Zm14.58,0h-4.86a27.82,27.82,0,0,0,5.15,4.57l2-2.29Zm11.43,4a19.75,19.75,0,0,1-2-1.72c-.76-.57-1.43-1.09-2-1.57a4.54,4.54,0,0,0-2.86-.71A20.41,20.41,0,0,0,452.08-401.75Z" transform="translate(218.25 454.35)"/><path class="cls-1" d="M579.29-209.37c-.38,0-.67-.33-.86-1s-.38-1.29-.57-1.86q-.29-6.86-.28-173.8a48.4,48.4,0,0,0-6-8.86q-6.86-7.42-19.15-10.58l-.57-.28Q563-412.33,563-410.61c0,.19-.29.43-.86.71a1.7,1.7,0,0,0-1,1,.84.84,0,0,0,.14.86,27,27,0,0,1,7.72,4.29l.29.57a1.17,1.17,0,0,1-1.15.57c-.57,0-.85.19-.85.57l.28.29a55.5,55.5,0,0,1,10,11.43v-59.46c0-3,.28-4.57.85-4.57q1.73.28,5.15,8.86v-.86a2.22,2.22,0,0,1,.43-1.57,3.68,3.68,0,0,0,.71-1l-.28-1.14q2,0,4.71,3.29t3.58,9.86v-6.58a1.11,1.11,0,0,1,1.14-.85,3.42,3.42,0,0,1,1.43.42,3.73,3.73,0,0,0,1.71.43c0,3.05.38,4.58,1.15,4.58h3.43v-8.86c0,2.85.38,4.28,1.14,4.28h3.43a22.83,22.83,0,0,1,.29,3.72l-.57,8a22.69,22.69,0,0,0,.28,3.72H609l.29-5.15L609-443.49a3.32,3.32,0,0,0,3.43,2.29l.29,4-.29,12h1.14V-428c.76,0,1.43,1,2,2.86h2c10.47,0,15.72.48,15.72,1.43h-2.57a6,6,0,0,0,3.14.86l3.14-.58,1.72.29v.29a1,1,0,0,0-.86.42,1.41,1.41,0,0,0-.28.72l.28.28h-4.57V-420h6.29v1.72q0,.57,1.71.57h-3.71v1.43a1.36,1.36,0,0,1,.57.14,4.16,4.16,0,0,0,1,.29,7.64,7.64,0,0,0,1.57.14l-1.14.57c-.2,0-.29-.09-.29-.28L637-416a2.23,2.23,0,0,0-2,.85,3,3,0,0,0,1.29.57l1.43.43a14.81,14.81,0,0,1,1.86,1h-2.86a13.46,13.46,0,0,0,3.43,1.72,5.6,5.6,0,0,1,1.57.57,1.7,1.7,0,0,1,.57.57,1.23,1.23,0,0,1,.14.57,1.66,1.66,0,0,0-1.14.58c-.38.38-.67.57-.86.57,2.29,1.14,3.43,1.9,3.43,2.28s-9.14.58-27.44.58v50q-.57,84-.86,96.34v8.86a4.8,4.8,0,0,1-1.85-.43,4.7,4.7,0,0,0-1.86-.43c-.39,0-.77.43-1.15,1.29s-.76,1.67-1.14,2.43v.85c-1.71,3.63-4.38,5.43-8,5.43-.57,0-.86-1-.86-3.14v-2c-.19,0-.48.19-.86.57q0-13.42-1.43-13.43c-.19,0-.48.67-.85,2-.58.76-.86,2.76-.86,6,0,5.53-1,8.29-2.86,8.29L589-244.24a1.94,1.94,0,0,0-1.43.57v8.86a1.15,1.15,0,0,1-1.14.57,5.54,5.54,0,0,1-2.86-1.14q-2,0-2,13.15l.28,12.29Z" transform="translate(218.25 454.35)"/><path class="cls-1" d="M854.85-425.19a10.81,10.81,0,0,1,3.15.43c1,.28,1.43.62,1.43,1h-2.57a7.62,7.62,0,0,0,2.85.57h5.15L863.43-422l.57.57-2.29-.28-2.28.28V-420l4.57-.28,1.72.28v1.72c0,.19.18.33.57.43a4.45,4.45,0,0,0,1.14.14h-3.71v1.14a.77.77,0,0,0,.57.29h.57l2,.57-1.14.29a2.23,2.23,0,0,1-.86-.29,9.44,9.44,0,0,0-2.29-.28,1.94,1.94,0,0,0-1.43.57v.28a5.36,5.36,0,0,1,1.43.57,13.28,13.28,0,0,0,1.29.58,10.24,10.24,0,0,0,1.29.43c.38.09.57.24.57.42h-2.86a23,23,0,0,0,3.72,2,2.31,2.31,0,0,1,1.28.29,1,1,0,0,1,.43.86h.29v.28H868l-1.14,1.15h-.28a11.87,11.87,0,0,1,2.42,1.28c.67.48,1,.82,1,1,0,.39-.57.58-1.71.58H840c.19,2.85.29,5.81.29,8.86v51.74q0,32-.29,60,0,19.15-.57,28.3v8.29a4.69,4.69,0,0,1-1.43-.29,3.07,3.07,0,0,0-1.72-.57h-.57a1.12,1.12,0,0,0-1.14.86L833.7-246l-.28.57q-1.73,3.72-3.72,4.43a11.78,11.78,0,0,1-4,.72c-.39,0-.62-.29-.72-.86a11.82,11.82,0,0,1-.14-2v-1.29c0-.28-.1-.43-.29-.43l-.57.29c0-1.52-.05-3.19-.14-5s-.24-3.38-.43-4.72a4.43,4.43,0,0,0-.86-2.29l-.28-.28-.86,2a3.08,3.08,0,0,0-.72,1.86,29.08,29.08,0,0,0-.14,3,29.88,29.88,0,0,1-.28,4,6.34,6.34,0,0,1-.29,2,3.61,3.61,0,0,1-.86,1.43,3,3,0,0,1-1.71.57,3.43,3.43,0,0,1-2-.57c-.77-.19-1.43-.38-2-.57h-.29l-1.43.57v8.29a1.6,1.6,0,0,1-1.14.57,3.17,3.17,0,0,1-1.43-.28l-1.15-.57-.57-.29h-.28c-.2,0-.29.05-.29.14v.43a46.32,46.32,0,0,0-1.14,10.58l.28,12.29a2.41,2.41,0,0,0-1.14.29,2.66,2.66,0,0,1-1.14.28,1.47,1.47,0,0,1-.72-.28,2.19,2.19,0,0,1-.71-1.15l-.57-1.14q0-6.58-.29-12.58v-63.46l-.57.29-1.15-.58q-1.14-2.85-2-5.43-2.28-5.72-4.57-10.72a81.21,81.21,0,0,0-6.29-11,64.73,64.73,0,0,0-10.86-12,48.32,48.32,0,0,0-4.29,8.29,83.9,83.9,0,0,0-4,13.44,79.09,79.09,0,0,0-2,15.15v4.57a75.16,75.16,0,0,0,1.43,14.87v.85a.76.76,0,0,1-.86.86,6.61,6.61,0,0,1-2.29-.57,20.08,20.08,0,0,1-2.86-1.43l.29.29-.57.57a.6.6,0,0,0-.43.14.57.57,0,0,0-.14.43l.28.29-2,.28a10.93,10.93,0,0,1-4.14-.86,5.25,5.25,0,0,1-3-2.85L752-272a1.45,1.45,0,0,1-1.15.71,9.88,9.88,0,0,1-1.71.15h-1.72a2.74,2.74,0,0,0-.28-1.15.93.93,0,0,0-.86-.57l-3.72.57.86,3.72-.29-.29a2,2,0,0,0-.14-.86c-.1-.18-.33-.28-.71-.28l-3.72.57-.29-.57v1.71h-1.71a3.45,3.45,0,0,1-2-.57l-.29-.57h-2.28l-.58-2.86v-2.57a8.5,8.5,0,0,0-1.43-4.57l.29,3.43h-.29c-1.33,0-2.19-1.15-2.57-3.43a41.9,41.9,0,0,1-.57-6.87v-2.57c0-2.28.19-5.81.57-10.57a119.74,119.74,0,0,0-8.29-18.87,66.19,66.19,0,0,0-10.57-14.29q-5.73-5.71-10.58-6.86L694.2-340a21.06,21.06,0,0,0-6.86,1.43.82.82,0,0,1-.28.57,6.28,6.28,0,0,0-1.43,1.15A20.9,20.9,0,0,0,682.2-332a44,44,0,0,0-3.43,14.58,47.67,47.67,0,0,0,.57,7.43,2.52,2.52,0,0,0,.28,1.14,4,4,0,0,0,.58,2.29.81.81,0,0,0,.28.57,6.33,6.33,0,0,0,.14,1.43,1.87,1.87,0,0,0,.43.86l.29.57.86-2.29q.85-6.29,2.28-6.29,1.14,0,1.86,2.58a59.58,59.58,0,0,1,1.29,6v-.29a1.77,1.77,0,0,1,.28-1,2.21,2.21,0,0,1,.86-.71c.19,0,.38-.14.57-.43a1.78,1.78,0,0,0,.29-1v-.29c1.14.2,2.19,1.1,3.14,2.72A12,12,0,0,1,694.2-298a15.12,15.12,0,0,1-.86,4.86,3,3,0,0,1,.58-.85q.86-2,1.71-4.58l.86-.57a1.78,1.78,0,0,1,1,.29,7.21,7.21,0,0,1,1,.85,8.84,8.84,0,0,0,1.43,1.15c-.38.95-.71,1.81-1,2.57a5.73,5.73,0,0,0-.43,2l.29.57,3.14,1.72a30.55,30.55,0,0,0,2.29-5.15l.57-1.71v1.14a1.12,1.12,0,0,0,.29.86l3.43,1.14-2,5.43-1.42,2.86-1.72,2.58q-2.58,3.7-5.14,6.86a29.5,29.5,0,0,0-2.29,2.57l1.14,2.29q4.86-2.86,8.58-9.44l1.71-3.14,1.43-3.43,2-5.43a6.94,6.94,0,0,0,.57,3.43,4.35,4.35,0,0,0,1.72,1.43,20,20,0,0,1-1.43,2.85,16.12,16.12,0,0,1-2.86,5.72l-2.57,4-.29.29q-4.29,4.29-8,7.43a42,42,0,0,1-9.15,5.72,18.7,18.7,0,0,0,5.43-2c1.72-.95,3.43-2,5.15-3.15v.29c0,1-1.14,2.38-3.43,4.29a36.58,36.58,0,0,1-4.86,2.57,11.79,11.79,0,0,1-1.43.57A24.58,24.58,0,0,1,684.2-258h-2a30.76,30.76,0,0,1-13.44-3.14A33.74,33.74,0,0,1,657-270.26l-2.29-2.57a7.62,7.62,0,0,1-1.42-2,16.27,16.27,0,0,0-.86-1.43l-4-6-3.15-6.58-.86-2.28a3.56,3.56,0,0,1-.57-2l-.28-.85a34.94,34.94,0,0,1-2-7.72,64.61,64.61,0,0,1-1.42-13.72l.28-6.58a71.54,71.54,0,0,1,4.86-22q4.29-11.43,14.87-22a56.12,56.12,0,0,1,6.28-4.86,46.12,46.12,0,0,1,7.44-3.72l6.29-2c2.28-.57,4.57-1,6.86-1.43a48.39,48.39,0,0,1,7.14-.57,53,53,0,0,1,20.3,4q12.29,5.73,19.72,13.15v.29A94.22,94.22,0,0,1,743.94-350a11.94,11.94,0,0,1,1.43-1.72,36.57,36.57,0,0,1,5.43-6.57v-.29l2.86-3.43,2,2.58H756v.28a1.76,1.76,0,0,0,.71.43,2.25,2.25,0,0,0,.72.14l2-.57a10.37,10.37,0,0,1,1.86.14c.47.1,1,.25,1.57.43A6.33,6.33,0,0,1,764-360l1.15-1.71a2.76,2.76,0,0,0,1.42.57l.58-.29,2-3.14-2.58-1.72,1.15.58,2.57-3.43a1.94,1.94,0,0,1,1.43.57l1.14,1.14c.38.39.76.76,1.15,1.14a1.62,1.62,0,0,0,1.14.58l1.72-2.29a6.37,6.37,0,0,0-1.58-1.57,16.87,16.87,0,0,0-2.14-1.29l-1.14-.57a3.46,3.46,0,0,0,1.42-.86,6.89,6.89,0,0,0,1.15-1.71,4.57,4.57,0,0,1,2.57,2,9.4,9.4,0,0,0,1.43,1.14,3.45,3.45,0,0,0,2,.57h.86l-2-1.43a1.91,1.91,0,0,1,1.71-.85,7.82,7.82,0,0,1,4,1.43,37.41,37.41,0,0,1,4,2.85q4,2.87,12.29,10.29v-47.73H630.74c-1.14-.19-2.14-.38-3-.58s-1.29-.47-1.29-.85H629a7.67,7.67,0,0,0-2.86-.57H621l1.15-.86v-.29l-.29-.57,2.29.29,2.28-.29v-1.43l-4.86.29-1.42-.29v-1.71a.51.51,0,0,0-.58-.58h2.29v-1.14c0-.19,0-.29-.14-.29H621l-2-.57,1.15-.28h.28a5.43,5.43,0,0,0,1.29.43,8.49,8.49,0,0,0,1.57.14,1.94,1.94,0,0,0,1.43-.57v-.29h-.29c-.57-.19-1.18-.43-1.85-.71s-1.24-.53-1.72-.72-.71-.38-.71-.57h2.57a25.18,25.18,0,0,0-3.72-2,2.41,2.41,0,0,1-1.14-.29.9.9,0,0,1-.57-.85v-.29h.57l1.14-1.14h.29a11.5,11.5,0,0,1-2.43-1.29c-.67-.47-1-.81-1-1q0-.57,1.71-.57ZM737.94-273.4a10.82,10.82,0,0,0-.57-3.43Z" transform="translate(218.25 454.35)"/></svg>